<svg version="1.1" viewBox="0 0 512 512" xmlns="http://www.w3.org/2000/svg"><path d="m2.996 2.996h506v506h-506z" fill="#ff0" stroke="#ff0" stroke-width="5.993"/><path d="m76.51 301.2c-8.601 2.102-6.204 12.99-6.204 19.75v60.48c0 4.541-0.5332 9.473 0.2549 13.96 2.484 14.14 17.64 12.41 28.43 12.41 3.452 0 9.306-1.081 11.83 1.887 2.077 2.442 1.351 6.783 1.351 9.744v24.81c0 3.965-1.041 9.678 2.593 12.4 5.447 4.078 18.77 1.558 25.32 1.558 4.821 0 10.84 0.9587 15.5-0.3363 6.002-1.665 5.431-7.89 5.431-12.85v-24.04c0-3.177-0.8176-7.846 0.9142-10.68 2.082-3.405 7.342-2.503 10.72-2.503 7.501 0 16.08 1.014 21.41-5.461 5.093-6.191 3.407-15.77 3.407-23.23v-54.28c0-6.157 2.648-19.48-3.911-22.82-4.411-2.245-10.68-1.219-15.47-1.219-5.375 0-13.76-1.542-18.44 1.62-5.274 3.56-3.267 13.85-3.267 19.32v41.1c0 4.754 1.512 12.83-1.441 16.88-3.626 4.982-20.83 3.05-26.47 2.419-11.35-1.271-6.979-26.63-6.979-34.81v-31.02c0-3.665 0.9766-9.107-1.351-12.23-2.526-3.391-7.276-3.27-11.06-3.276-10.14-0.0154-22.71-1.995-32.57 0.4134" fill="#da3390"/><g transform="matrix(.9024 0 0 .9024 70.4 -8.605)" clip-rule="evenodd" fill-rule="evenodd" stroke-linejoin="round" stroke-miterlimit="2"><g transform="matrix(.8189 -.8189 .8189 .8189 -83.94 203.1)"><path d="m167.6 287.7c-66.02-3.979-118.4-58.85-118.4-125.9 0-69.6 56.5-126.1 126.1-126.1s126.1 56.5 126.1 126.1c0 67.01-52.39 121.9-118.4 125.9v31h3.297c6.065 0 10.99 4.924 10.99 10.99v125.3c0 6.065-4.924 10.99-10.99 10.99h-21.98c-6.065 0-10.99-4.924-10.99-10.99v-125.3c0-6.065 4.924-10.99 10.99-10.99h3.296zm7.693-226.7c55.65 0 100.8 45.18 100.8 100.8 0 55.65-45.18 100.8-100.8 100.8-55.65 0-100.8-45.18-100.8-100.8 0-55.65 45.18-100.8 100.8-100.8zm84.6 97.91c-0.772-22.44-10.42-43.65-26.84-58.97-34.15-31.88-87.76-30.04-119.6 4.115-2.754 2.95-2.594 7.581 0.356 10.34s7.581 2.595 10.34-0.355c26.37-28.25 70.72-29.78 98.98-3.404 13.58 12.67 21.56 30.22 22.2 48.78 0.138 4.033 3.526 7.195 7.559 7.057 4.034-0.139 7.196-3.526 7.057-7.56z"/></g></g></svg>
