<?xml version="1.0" encoding="UTF-8" standalone="no"?>
<!-- Created with Inkscape (http://www.inkscape.org/) -->

<svg
   width="512"
   height="512"
   viewBox="0 0 512 512"
   version="1.1"
   id="svg1"
   xml:space="preserve"
   inkscape:version="1.4 (86a8ad7, 2024-10-11)"
   sodipodi:docname="icon-source.svg"
   xmlns:inkscape="http://www.inkscape.org/namespaces/inkscape"
   xmlns:sodipodi="http://sodipodi.sourceforge.net/DTD/sodipodi-0.dtd"
   xmlns="http://www.w3.org/2000/svg"
   xmlns:svg="http://www.w3.org/2000/svg"><sodipodi:namedview
     id="namedview1"
     pagecolor="#505050"
     bordercolor="#ffffff"
     borderopacity="1"
     inkscape:showpageshadow="0"
     inkscape:pageopacity="0"
     inkscape:pagecheckerboard="1"
     inkscape:deskcolor="#d1d1d1"
     inkscape:document-units="px"
     inkscape:current-layer="layer1" /><defs
     id="defs1" /><rect
     style="fill:#ffff00;fill-opacity:1;stroke:#ffff00;stroke-width:5.9927;stroke-opacity:1"
     id="rect11"
     width="506.00729"
     height="506.00729"
     x="2.9963527"
     y="2.9963527" /><g
     inkscape:label="Layer 1"
     inkscape:groupmode="layer"
     id="layer1"><path
       style="fill:#da3390;fill-opacity:1;stroke:none;stroke-width:2.19797"
       d="m 76.51088,301.19331 c -8.601165,2.1017 -6.20373,12.99233 -6.20373,19.74683 v 60.48065 c 0,4.54085 -0.53316,9.47293 0.25487,13.95708 2.48414,14.13578 17.6414,12.40631 28.43466,12.40631 3.45219,0 9.30552,-1.08145 11.83072,1.88702 2.07699,2.44156 1.35096,6.78289 1.35096,9.74386 v 24.81259 c 0,3.96473 -1.04122,9.67823 2.593,12.39911 5.44746,4.07842 18.77164,1.55796 25.32116,1.55796 4.82079,0 10.83678,0.95871 15.50488,-0.33626 6.00245,-1.66507 5.43073,-7.88982 5.43073,-12.84542 v -24.03718 c 0,-3.17685 -0.81755,-7.84603 0.9142,-10.67842 2.08189,-3.40502 7.34231,-2.50326 10.71671,-2.50326 7.50126,0 16.07965,1.01379 21.40585,-5.46126 5.09277,-6.19128 3.40673,-15.77368 3.40673,-23.2283 v -54.27754 c 0,-6.15733 2.64776,-19.47929 -3.91105,-22.81784 -4.41141,-2.24549 -10.68029,-1.21934 -15.47379,-1.21934 -5.37475,0 -13.75915,-1.54157 -18.44369,1.6202 -5.27409,3.55967 -3.2673,13.85334 -3.2673,19.31541 v 41.09584 c 0,4.75404 1.51154,12.82515 -1.44072,16.88156 -3.62561,4.98166 -20.83414,3.0504 -26.47344,2.41892 -11.35126,-1.27108 -6.97854,-26.63274 -6.97854,-34.80833 v -31.01573 c 0,-3.66478 0.97658,-9.10738 -1.35098,-12.23218 -2.52607,-3.39135 -7.27632,-3.26963 -11.05532,-3.27569 -10.13746,-0.0154 -22.7092,-1.99503 -32.56591,0.41341"
       id="path5" /><g
       style="clip-rule:evenodd;fill:#000000;fill-opacity:1;fill-rule:evenodd;stroke-linejoin:round;stroke-miterlimit:2"
       id="g11"
       transform="matrix(0.90241957,0,0,0.90241957,70.395005,-8.6048471)"><g
         transform="matrix(0.818935,-0.818935,0.818935,0.818935,-83.9365,203.141)"
         id="g1"
         style="fill:#000000;fill-opacity:1">
        <g
   id="Search"
   style="fill:#000000;fill-opacity:1">
            <path
   d="M 167.582,287.681 C 101.564,283.702 49.176,228.827 49.176,161.813 c 0,-69.596 56.503,-126.099 126.099,-126.099 69.596,0 126.099,56.503 126.099,126.099 0,67.014 -52.389,121.889 -118.407,125.868 v 31 h 3.297 c 6.065,0 10.989,4.924 10.989,10.989 v 125.275 c 0,6.065 -4.924,10.989 -10.989,10.989 h -21.978 c -6.065,0 -10.989,-4.924 -10.989,-10.989 V 329.67 c 0,-6.065 4.924,-10.989 10.989,-10.989 h 3.296 z m 7.693,-226.692 c 55.646,0 100.824,45.178 100.824,100.824 0,55.647 -45.178,100.824 -100.824,100.824 -55.647,0 -100.824,-45.177 -100.824,-100.824 0,-55.646 45.177,-100.824 100.824,-100.824 z m 84.602,97.914 c -0.772,-22.438 -10.425,-43.65 -26.837,-58.97 -34.153,-31.882 -87.764,-30.038 -119.646,4.115 -2.754,2.95 -2.594,7.581 0.356,10.335 2.95,2.754 7.581,2.595 10.335,-0.355 26.373,-28.252 70.723,-29.778 98.975,-3.404 13.576,12.673 21.562,30.221 22.201,48.782 0.138,4.033 3.526,7.195 7.559,7.057 4.034,-0.139 7.196,-3.526 7.057,-7.56 z"
   style="fill:#000000;fill-opacity:1"
   id="path1" />
        </g>
    </g></g></g></svg>
